<?xml version="1.0" encoding="utf-8"?>
<!-- Generator: Adobe Illustrator 16.0.4, SVG Export Plug-In . SVG Version: 6.00 Build 0)  -->
<!DOCTYPE svg PUBLIC "-//W3C//DTD SVG 1.1//EN" "http://www.w3.org/Graphics/SVG/1.1/DTD/svg11.dtd">
<svg version="1.1" id="Layer_1" xmlns="http://www.w3.org/2000/svg" xmlns:xlink="http://www.w3.org/1999/xlink" x="0px" y="0px"
	 width="50px" height="50px" viewBox="0 0 50 50" enable-background="new 0 0 50 50" xml:space="preserve">
<path d="M19.459,30.807c0.886,1.883,2.21,3.683,3.942,5.359c-3.436-0.502-6.354-2.54-8.048-5.402L19.459,30.807z M23.335,13.925
	c-3.312,0.5-6.152,2.448-7.856,5.188l3.981,0.043C20.335,17.311,21.639,15.555,23.335,13.925z M24.669,19.212l0.059-5.41
	c-0.002,0-0.009,0-0.012,0c-1.903,1.661-3.351,3.459-4.316,5.362L24.669,19.212z M15.48,20.892l-0.786-0.007l-0.777-0.01
	l-0.061,5.619l-3.146-5.653l-0.879-0.009l-0.875-0.01L8.87,28.818l0.782,0.011l0.778,0.007l0.062-5.764l3.237,5.8l0.834,0.01
	l0.832,0.009L15.48,20.892z M22.957,22.393l0.007-0.713l0.009-0.708l-5.888-0.063l-0.086,7.999l6.071,0.064l0.008-0.711l0.007-0.709
	l-4.399-0.047l0.022-2.087l3.911,0.042l0.007-0.686l0.007-0.69l-3.911-0.041l0.019-1.696L22.957,22.393z M30.939,26.865
	L30.939,26.865l-1.096-5.818l-0.892-0.01l-0.887-0.011l-1.205,5.843l-1.274-5.868l-0.868-0.01l-0.869-0.01l2.14,8.023l0.793,0.008
	l0.795,0.01l1.323-6.286l1.217,6.312l0.798,0.011l0.792,0.008l2.312-7.975l-0.844-0.009l-0.845-0.009L30.939,26.865z M25.587,13.812
	c-0.004,0-0.009,0-0.012,0l-0.058,5.409l4.272,0.045C28.863,17.342,27.455,15.514,25.587,13.812z M34.711,19.318
	c-1.646-2.774-4.443-4.782-7.747-5.354c1.664,1.665,2.929,3.448,3.766,5.312L34.711,19.318z M26.423,36.198
	c3.444-0.427,6.403-2.403,8.163-5.229l-4.106-0.043C29.553,32.789,28.189,34.559,26.423,36.198z M29.533,30.916l-4.141-0.045
	l-0.056,5.166C27.158,34.45,28.567,32.727,29.533,30.916z M40.561,25.302c-0.39-0.345-1.162-0.655-2.323-0.924
	c-0.8-0.192-1.323-0.349-1.567-0.485c-0.249-0.131-0.374-0.318-0.371-0.559c0.002-0.329,0.125-0.596,0.368-0.779
	c0.239-0.177,0.573-0.268,0.996-0.262c0.49,0.004,0.886,0.122,1.189,0.345c0.301,0.225,0.464,0.526,0.488,0.908l1.627,0.02
	c-0.052-0.805-0.357-1.441-0.915-1.919c-0.555-0.478-1.283-0.721-2.179-0.73c-0.956-0.011-1.719,0.21-2.286,0.654
	c-0.566,0.449-0.853,1.069-0.861,1.841c-0.007,0.693,0.199,1.205,0.618,1.538c0.425,0.331,1.271,0.647,2.535,0.942
	c0.688,0.16,1.135,0.317,1.345,0.457c0.212,0.144,0.318,0.364,0.315,0.668c-0.003,0.305-0.156,0.539-0.457,0.709
	c-0.302,0.168-0.717,0.25-1.252,0.244c-0.517-0.006-0.922-0.123-1.208-0.356c-0.29-0.229-0.438-0.554-0.452-0.983l-1.609-0.017
	c0.029,0.864,0.328,1.532,0.892,2.006c0.565,0.478,1.354,0.719,2.363,0.729c1.011,0.01,1.81-0.197,2.406-0.635
	c0.598-0.436,0.898-1.027,0.906-1.779C41.141,26.189,40.949,25.643,40.561,25.302z M24.489,36.023l0.056-5.16l-4.141-0.045
	C21.334,32.648,22.703,34.4,24.489,36.023z"/>
</svg>
