<svg height="512pt" viewBox="0 -34 512 512" width="512pt" xmlns="http://www.w3.org/2000/svg"><path d="m185.222656 12.5h316v221.605469h-316zm0 0" fill="#fff"/><path d="m42.777344 444.027344h-18.0625c-3.449219 0-6.242188-2.792969-6.242188-6.242188v-24.304687h30.546875v24.304687c0 3.449219-2.796875 6.242188-6.242187 6.242188zm0 0" fill="#ab5735"/><path d="m164.777344 444.027344h-18.066406c-3.445313 0-6.238282-2.792969-6.238282-6.242188v-24.304687h30.546875v24.304687c0 3.449219-2.796875 6.242188-6.242187 6.242188zm0 0" fill="#ab5735"/><path d="m295.222656 233.824219h96v41.863281h-96zm0 0" fill="#3c5a73"/><path d="m401.0625 298.1875h-115.679688c-3.402343 0-6.160156-2.757812-6.160156-6.160156v-12.679688c0-3.402344 2.757813-6.160156 6.160156-6.160156h115.679688c3.402344 0 6.160156 2.757812 6.160156 6.160156v12.679688c0 3.402344-2.757812 6.160156-6.160156 6.160156zm0 0" fill="#46738c"/><path d="m499.5 323.1875h-294.148438c-6.902343 0-12.5-5.597656-12.5-12.5s5.597657-12.5 12.5-12.5h294.148438c6.902344 0 12.5 5.597656 12.5 12.5s-5.597656 12.5-12.5 12.5zm0 0" fill="#87afb9"/><path d="m499.5 246.605469h-316c-6.902344 0-12.5-5.597657-12.5-12.5v-221.605469c0-6.902344 5.597656-12.5 12.5-12.5h316c6.902344 0 12.5 5.597656 12.5 12.5v221.605469c0 6.902343-5.597656 12.5-12.5 12.5zm-303.5-25h291v-196.605469h-291zm0 0" fill="#415050"/><path d="m150.75 63.152344c0 23.574218-19.109375 42.6875-42.6875 42.6875-23.574219 0-42.683594-19.113282-42.683594-42.6875 0-23.574219 19.109375-42.6875 42.683594-42.6875 23.578125 0 42.6875 19.113281 42.6875 42.6875zm0 0" fill="#f5a990"/><path d="m245.914062 203.527344c-2.765624 0-5.472656-1.347656-7.105468-3.832032-2.582032-3.917968-1.496094-9.191406 2.425781-11.769531l44.894531-29.542969c3.921875-2.582031 9.191406-1.496093 11.773438 2.425782 2.582031 3.921875 1.492187 9.191406-2.425782 11.773437l-44.898437 29.542969c-1.4375.949219-3.058594 1.402344-4.664063 1.402344zm0 0" fill="#87afb9"/><path d="m260.097656 184.007812c-7.039062-8.9375-19.988281-10.480468-28.925781-3.441406l-21.59375 17.003906v-29.523437c0-.03125 0-.066406 0-.101563-.132813-26.742187-22.339844-48.5-49.503906-48.5-12.535157 0-98.039063 0-110.570313 0-27.164062 0-49.371094 21.757813-49.503906 48.5v.101563 151.316406c0 11.375 9.222656 20.597657 20.597656 20.597657s20.597656-9.222657 20.597656-20.597657v-151.242187c.039063-3.917969 3.988282-7.480469 8.308594-7.480469h.738282v156.191406h109.097656v-156.191406h.738281c4.316406 0 8.265625 3.558594 8.308594 7.476563v71.890624c0 7.886719 4.503906 15.082032 11.601562 18.527344 7.097657 3.445313 15.539063 2.535156 21.738281-2.347656l54.929688-43.257812c8.9375-7.035157 10.476562-19.988282 3.441406-28.921876zm0 0" fill="#f5a990"/><path d="m160.074219 119.445312h-110.570313c-27.164062 0-49.371094 21.757813-49.503906 48.5v27.769532h41.191406v-27.59375c.039063-3.917969 3.992188-7.480469 8.3125-7.480469h.734375v156.191406h109.097657c0-17.320312 0-135.203125 0-156.191406h.738281c4.316406 0 8.269531 3.558594 8.3125 7.476563v27.597656h41.191406v-27.769532c-.132813-26.742187-22.339844-48.5-49.503906-48.5zm0 0" fill="#64afff"/><path d="m171.492188 427.121094h-154.777344c-9.230469 0-16.714844-7.484375-16.714844-16.71875v-197.292969c0-9.230469 7.484375-16.714844 16.714844-16.714844h154.777344c9.230468 0 16.714843 7.484375 16.714843 16.714844v197.292969c.003907 9.234375-7.480469 16.71875-16.714843 16.71875zm0 0" fill="#ba6746"/><g fill="#64afff"><path d="m327.347656 199.332031-11.375-20.71875v20.359375c0 1.914063-2.335937 2.875-4.671875 2.875-2.335937 0-4.667969-.960937-4.667969-2.875v-38.023437c0-1.972657 2.332032-2.871094 4.667969-2.871094 3.355469 0 4.609375.296875 6.886719 4.667969l9.699219 18.5v-20.355469c0-1.976563 2.335937-2.816406 4.671875-2.816406 2.332031 0 4.667968.839843 4.667968 2.816406v38.082031c0 1.914063-2.335937 2.871094-4.667968 2.871094-2.15625.003906-4.074219-.417969-5.210938-2.511719zm0 0"/><path d="m356.023438 176.339844h8.984374c1.792969 0 2.8125 1.734375 2.8125 3.652344 0 1.617187-.839843 3.53125-2.8125 3.53125h-8.984374v10.179687h16.046874c1.796876 0 2.816407 1.914063 2.816407 4.132813 0 1.914062-.839844 4.011718-2.816407 4.011718h-21.3125c-2.039062 0-4.074218-.960937-4.074218-2.875v-38.023437c0-1.914063 2.039062-2.871094 4.074218-2.871094h21.3125c1.976563 0 2.816407 2.09375 2.816407 4.011719 0 2.214844-1.019531 4.128906-2.816407 4.128906h-16.046874zm0 0"/><path d="m421.585938 199.09375c-.71875 2.09375-3.410157 3.113281-6.164063 3.113281-2.695313 0-5.570313-1.019531-6.050781-3.113281l-3.109375-14.191406-3.117188 14.191406c-.476562 2.09375-3.351562 3.113281-6.046875 3.113281-2.753906 0-5.507812-1.019531-6.164062-3.113281l-11.917969-36.527344c-.058594-.179687-.121094-.476562-.121094-.777344 0-2.035156 3.355469-3.710937 6.046875-3.710937 1.4375 0 2.636719.480469 2.996094 1.734375l9.101562 30.71875 4.730469-20.238281c.359375-1.617188 2.453125-2.457031 4.488281-2.457031 2.039063 0 4.132813.839843 4.492188 2.457031l4.730469 20.238281 9.097656-30.71875c.359375-1.253906 1.558594-1.734375 2.996094-1.734375 2.695312 0 6.046875 1.675781 6.046875 3.710937 0 .300782-.058594.601563-.121094.777344zm0 0"/><path d="m457.988281 190.109375c0-7.242187-18.980469-5.988281-18.980469-19.996094 0-8.980469 7.84375-12.394531 15.328126-12.394531 3.171874 0 11.914062.597656 11.914062 5.265625 0 1.617187-1.078125 4.910156-3.710938 4.910156-2.15625 0-3.292968-2.273437-8.203124-2.273437-4.25 0-5.988282 1.734375-5.988282 3.59375 0 5.984375 18.980469 4.847656 18.980469 19.9375 0 8.621094-6.285156 13.292968-14.96875 13.292968-7.84375 0-14.429687-3.832031-14.429687-7.785156 0-2.035156 1.796874-5.03125 4.070312-5.03125 2.816406 0 4.613281 4.433594 10.179688 4.433594 2.753906 0 5.808593-1.078125 5.808593-3.953125zm0 0"/><path d="m383.445312 126.300781h-11.914062v16.226563c0 1.917968-2.335938 2.875-4.671875 2.875-2.332031 0-4.667969-.957032-4.667969-2.875v-38.082032c0-1.972656 2.335938-2.8125 4.667969-2.8125 2.335937 0 4.671875.839844 4.671875 2.8125v14.671876h11.914062v-14.671876c0-1.972656 2.335938-2.8125 4.671876-2.8125 2.335937 0 4.667968.839844 4.667968 2.8125v38.082032c0 1.917968-2.332031 2.875-4.667968 2.875-2.335938 0-4.671876-.957032-4.671876-2.875zm0 0"/><path d="m401.765625 131.632812v-15.867187c0-10.300781 6.410156-14.132813 14.671875-14.132813s14.726562 3.832032 14.726562 14.132813v15.867187c0 10.296876-6.464843 14.128907-14.726562 14.128907s-14.671875-3.832031-14.671875-14.128907zm20.058594-15.867187c0-4.132813-2.035157-5.988281-5.386719-5.988281-3.355469 0-5.332031 1.855468-5.332031 5.988281v15.867187c0 4.128907 1.976562 5.984376 5.332031 5.984376 3.351562 0 5.386719-1.855469 5.386719-5.984376zm0 0"/><path d="m465.414062 101.632812c1.976563 0 2.8125 2.15625 2.8125 4.132813 0 2.273437-1.015624 4.25-2.8125 4.25h-8.265624v32.511719c0 1.914062-2.332032 2.875-4.667969 2.875-2.335938 0-4.671875-.960938-4.671875-2.875v-32.511719h-8.261719c-1.796875 0-2.8125-1.976563-2.8125-4.25 0-1.976563.835937-4.132813 2.8125-4.132813zm0 0"/></g></svg>