<?xml version="1.0" standalone="no"?><!DOCTYPE svg PUBLIC "-//W3C//DTD SVG 1.1//EN" "http://www.w3.org/Graphics/SVG/1.1/DTD/svg11.dtd"><svg t="1563521604434" class="icon" viewBox="0 0 1024 1024" version="1.1" xmlns="http://www.w3.org/2000/svg" p-id="2577" width="32" height="32" xmlns:xlink="http://www.w3.org/1999/xlink"><defs><style type="text/css"></style></defs><path d="M640 640H384a63.573333 63.573333 0 0 0-45.952 19.776C402.816 690.56 448 755.584 448 832a192 192 0 0 1-192 192 192 192 0 0 1-192-192c0-83.52 53.568-153.792 128-180.288V372.224C117.568 345.792 64 275.52 64 192a192 192 0 0 1 192-192 192 192 0 0 1 192 192c0 83.52-53.568 153.792-128 180.224v151.552c20.096-7.168 41.408-11.776 64-11.776h256c35.392 0 64-28.608 64-64v-11.776c-74.368-26.432-128-96.704-128-180.224 0-106.048 86.016-192 192-192s192 85.952 192 192c0 83.52-53.632 153.792-128 180.224V448c0 106.048-86.016 192-192 192z m128-448c35.392 0 64 28.608 64 64s-28.608 64-64 64-64-28.608-64-64 28.608-64 64-64zM256 128a64 64 0 1 1 0 128 64 64 0 1 1 0-128z m0 640a64 64 0 1 1 0 128 64 64 0 1 1 0-128z" fill="#61dafb" p-id="2578"></path></svg>